<svg xmlns="http://www.w3.org/2000/svg" xmlns:xlink="http://www.w3.org/1999/xlink" width="64" height="64" viewBox="0 0 64 64"><defs><path id="yguaa" d="M832.002 5529c0 17.645-14.357 32.002-32.004 32.002-17.646 0-32.003-14.357-32.003-32.003s14.357-32.004 32.003-32.004c17.647 0 32.004 14.358 32.004 32.004zm-5.818 0c0-14.439-11.747-26.186-26.186-26.186-14.438 0-26.184 11.747-26.184 26.184 0 14.437 11.746 26.183 26.184 26.183 14.44 0 26.186-11.745 26.186-26.182zm-30.552-8.731l13.095 8.73-13.095 8.73z"/></defs><g><g transform="translate(-768 -5497)"><use fill="#fff" xlink:href="#yguaa"/></g></g></svg>